# xmcd CD database file
#
# Track frame offsets:
#	183
#	15455
#	31300
#	45320
#	59360
#	69613
#	83595
#	97578
#	111330
#	128330
#	146795
#	168170
#	181220
#
# Disc length: 2573 seconds
#
# Revision: 0
# Processed by: cddbd v1.5.1PL0 Copyright (c) Steve Scherf et al.
# Submitted via: CDex 1.50beta9
#
DISCID=980a0b0d
DTITLE=BILLY McFARLAND - COUNTERY and IRISH
DYEAR=1900
DGENRE=Country
TTITLE0=Royal Telephone
TTITLE1=Spinning Wheel
TTITLE2=A Little Piece At A Time
TTITLE3=Molly Malone 
TTITLE4=No Tears My Lady
TTITLE5=Rathlin Island
TTITLE6=For All I Know
TTITLE7=Roses Love Sunshine
TTITLE8=Please Be Gentle
TTITLE9=Rose Of mooncin
TTITLE10=cottage By The Lea
TTITLE11=Bed Of Roses
TTITLE12=Goodnight Irene
EXTD=
EXTT0=
EXTT1=
EXTT2=
EXTT3=
EXTT4=
EXTT5=
EXTT6=
EXTT7=
EXTT8=
EXTT9=
EXTT10=
EXTT11=
EXTT12=
PLAYORDER=
